<svg xmlns="http://www.w3.org/2000/svg" style="display: none;"><symbol id="carpet" viewBox="0 0 512 512"><title>carpet</title><path d="M179.491,60C172.522,25.808,142.22,0,106,0C64.645,0,31,33.645,31,75v362c0,41.355,33.645,75,75,75h375V60H179.491z M61,75c0-24.813,20.187-45,45-45s45,20.187,45,45v0.041C138.456,65.603,122.871,60,106,60c-16.871,0-32.456,5.603-45,15.041V75z M61,135c0-24.813,20.187-45,45-45s45,20.187,45,45v177.142C137.056,305.525,121.72,302,106,302c-15.72,0-31.056,3.525-45,10.142 V135z M61,347.006C73.933,337.293,89.681,332,106,332c16.319,0,32.067,5.293,45,15.006v30.038 C138.456,367.605,122.871,362,106,362c-16.871,0-32.456,5.603-45,15.041V347.006z M148.42,422H121v-27.42 C133.764,399.107,143.893,409.236,148.42,422z M451,482H106c-24.813,0-45-20.187-45-45c0-19.555,12.541-36.228,30-42.42V452 c16.783,0,343.095,0,360,0V482z M451,422H181V150h270V422z M451,120H181V90h270V120z"/></symbol><symbol id="meditation" viewBox="-27 1 511 511.999"><title>meditation</title><path d="m453.265625 380.566406-18.140625-28.628906c-2.957031-4.667969-9.132812-6.050781-13.800781-3.097656-4.664063 2.957031-6.046875 9.136718-3.09375 13.800781l18.144531 28.632813c3.226562 5.09375 2.453125 11.863281-1.839844 16.101562-2.707031 2.671875-6.429687 4.007812-10.222656 3.667969-3.789062-.34375-7.214844-2.320313-9.40625-5.433594l-78.199219-111.214844-31.003906-73.960937v-8.691406c0-5.519532-4.476563-10-10-10-5.519531 0-10 4.480468-10 10v133.261718h-112.617187v-122.433594c0-.03125 0-.066406 0-.101562v-10.726562c0-5.519532-4.476563-10-10-10-5.523438 0-10 4.480468-10 10v8.792968l-30.957032 73.859375-78.203125 111.214844c-2.1875 3.109375-5.617187 5.089844-9.40625 5.429687-3.785156.339844-7.515625-.992187-10.222656-3.667968-4.292969-4.234375-5.066406-11.003906-1.839844-16.101563l69.496094-109.671875c.433594-.679687.777344-1.402344 1.035156-2.164062l29.71875-88.378906c10.46875-31.136719 39.578125-52.054688 72.425781-52.054688h68.566407c32.851562 0 61.957031 20.917969 72.425781 52.054688l29.722656 88.378906c.253906.761718.601563 1.484375 1.03125 2.164062l13.578125 21.433594c1.90625 3.003906 5.144531 4.648438 8.457031 4.648438 1.832032 0 3.683594-.503907 5.34375-1.554688 4.664063-2.957031 6.050782-9.136719 3.09375-13.800781l-12.933593-20.410157-29.335938-87.234374c-12.019531-35.75-43.511719-60.816407-80.316406-65.042969 10.882813-11.320313 17.597656-26.679688 17.597656-43.585938v-13.105469c0-34.707031-28.238281-62.945312-62.949219-62.945312-34.707031 0-62.945312 28.238281-62.945312 62.945312v13.105469c0 16.90625 6.710938 32.265625 17.597656 43.585938-36.804687 4.226562-68.296875 29.292969-80.320312 65.042969l-29.332032 87.234374-68.851562 108.652344c-8.230469 12.984375-6.257812 30.246094 4.6875 41.042969 4.96875 4.902344 11.285156 8.039063 18.035156 9.085937-.003906.011719-.007812.019532-.007812.027344-5.285156 14.136719-5.082032 29.628906.570312 43.621094 9.367188 23.191406 31.820313 37.65625 55.839844 37.65625 5.171875 0 10.421875-.671875 15.625-2.074219l129.101562-34.75 129.101563 34.75c5.203125 1.402344 10.449219 2.074219 15.625 2.074219 24.011719-.003906 46.46875-14.46875 55.835937-37.65625 5.652344-13.992188 5.855469-29.484375.574219-43.621094-.003906-.007812-.007812-.015625-.011719-.027344 6.75-1.046874 13.066407-4.183593 18.039063-9.085937 10.945313-10.792969 12.917969-28.054687 4.6875-41.042969zm-266.796875-317.621094c0-23.679687 19.265625-42.945312 42.949219-42.945312 23.679687 0 42.945312 19.265625 42.945312 42.945312v13.105469c0 23.683594-19.265625 42.949219-42.945312 42.949219-23.683594 0-42.949219-19.269531-42.949219-42.949219zm132.207031 240.179688c.277344.664062.628907 1.300781 1.042969 1.886719l56.402344 80.210937-70.417969-35.90625v-77.144531zm-179.5625 1.886719c.414063-.585938.761719-1.222657 1.039063-1.886719l12.933594-30.851562v77.066406l-70.378907 35.882812zm272.324219 161.84375c-7.605469 18.820312-28.121094 29.035156-47.722656 23.761719l-101.167969-27.234376c8.105469-6.390624 13.15625-16.273437 13.15625-27.0625 0-.375-.019531-.746093-.03125-1.117187l62.515625 14.765625c.773438.183594 1.546875.269531 2.308594.269531 4.53125 0 8.636718-3.101562 9.722656-7.703125 1.269531-5.375-2.058594-10.761718-7.433594-12.03125l-74.785156-17.664062c-.59375-.140625-1.191406-.214844-1.785156-.246094-1.109375-1.160156-2.296875-2.265625-3.582032-3.28125-8.304687-6.570312-18.980468-8.941406-29.289062-6.511719l-117.296875 27.703125c-5.375 1.269532-8.703125 6.65625-7.433594 12.03125s6.652344 8.703125 12.03125 7.433594l117.292969-27.703125c4.328125-1.023437 8.804688-.027344 12.285156 2.730469 3.484375 2.757812 5.480469 6.886718 5.480469 11.324218 0 6.519532-4.398437 12.253907-10.691406 13.949219l-17.804688 4.792969c-.210937.046875-.414062.105469-.617187.164062l-131.472656 35.386719c-19.601563 5.277344-40.117188-4.9375-47.722657-23.757812-7.859375-19.464844.3125-41.335938 19.011719-50.871094l99.988281-50.980469h126.042969l99.988281 50.980469c18.699219 9.539063 26.875 31.40625 19.011719 50.871094zm0 0"/><path d="m399.621094 333.78125c1.953125 1.957031 4.515625 2.9375 7.082031 2.9375 2.554687 0 5.109375-.972656 7.0625-2.921875l.371094-.367187c3.910156-3.902344 3.917969-10.234376.015625-14.144532-3.898438-3.910156-10.230469-3.917968-14.140625-.019531l-.371094.371094c-3.910156 3.902343-3.917969 10.234375-.019531 14.144531zm0 0"/></symbol><symbol id="spa" viewBox="0 0 509.808 509.808"><title>spa</title><path d="M463.253,355.832c2.389-1.728,4.715-3.52,6.827-5.589c12.395-12.224,18.411-29.461,18.411-52.693 c0-37.419-19.52-56.064-49.344-65.387c6.315-2.901,11.904-6.336,16.299-10.795c7.936-8.085,11.861-18.389,11.669-30.635 c-0.277-17.557-18.048-30.891-44.331-39.808c4.928-2.176,9.259-4.907,12.8-8.427c6.784-6.72,10.219-15.595,10.219-26.261 c0-40.277-50.176-85.333-117.333-85.333S211.136,75.96,211.136,116.237c0,10.667,3.435,19.499,10.197,26.24 c3.541,3.52,7.957,6.144,12.885,8.32c-19.925,6.72-34.944,15.957-41.216,27.627c-11.627-11.989-27.861-19.52-45.867-19.52 c-30.955,0-56.832,22.101-62.72,51.349c-28.267-9.515-60.331,1.856-75.819,28.651c-15.467,26.795-9.28,60.267,13.099,79.979 c-22.4,19.712-28.629,53.184-13.141,80.021c11.861,20.523,33.408,32,55.552,32c6.827,0,13.611-1.515,20.267-3.776 c5.739,29.44,31.659,51.776,62.763,51.776c21.205,0,39.915-10.496,51.563-26.453c30.805,16.427,82.901,26.453,140.437,26.453 c73.387,0,136.149-15.637,159.872-39.829c7.339-7.488,10.965-15.701,10.795-24.363 C509.077,379.235,490.923,363.085,463.253,355.832z M467.136,297.571c0,17.237-3.947,29.504-12.053,37.504 c-9.685,9.557-26.005,13.547-46.059,15.189c-11.371-0.128-23.232,0.064-35.435,0.256c-10.091,0.171-20.651,0.299-31.317,0.469 c-16.789-0.128-34.091-0.277-50.795-2.155c-1.536-5.248-3.883-10.197-6.72-14.912c-0.491-0.832-0.981-1.664-1.515-2.475 c-3.008-4.523-6.421-8.811-10.624-12.523l-0.021-0.021c0.043-0.043,0.085-0.085,0.128-0.128c0.085-0.085,0.149-0.171,0.256-0.256 c2.795-2.496,5.291-5.291,7.595-8.235c0.533-0.683,1.024-1.408,1.536-2.112c1.813-2.539,3.456-5.184,4.885-7.979 c0.341-0.661,0.725-1.301,1.045-1.984c1.621-3.456,3.051-7.019,4.053-10.773c1.024-3.84,1.6-7.723,1.899-11.584 c0.064-0.789,0-1.579,0.043-2.347c0.128-3.093,0.085-6.165-0.235-9.216c-0.107-1.131-0.32-2.261-0.491-3.392 c-0.427-2.752-1.045-5.44-1.835-8.128c-0.363-1.216-0.725-2.411-1.152-3.605c-0.32-0.875-0.491-1.792-0.853-2.645 c12.693-1.536,25.749-2.304,38.997-2.304C417.024,244.237,467.136,246.691,467.136,297.571z M232.469,116.237 c0-28.992,42.816-64,96-64c53.184,0,96,35.008,96,64c0,6.464-2.24,9.429-3.925,11.115c-10.624,10.56-43.328,10.368-77.931,10.24 l-14.144-0.021l-14.144,0.043c-34.581,0.213-67.307,0.341-77.931-10.24C234.709,125.688,232.469,122.744,232.469,116.237z M328.469,158.904c75.584,0,117.163,21.248,117.333,32.171c0.107,6.485-1.664,11.371-5.547,15.317 c-15.424,15.701-62.037,16.469-105.067,16.491c-2.24,0-4.459,0-6.699,0c-0.085,0-0.171,0-0.256,0 c-22.613-0.021-44.651-2.069-63.957-5.995c-0.277-0.171-0.597-0.235-0.875-0.384c-9.728-5.888-20.736-9.152-32.064-9.365 c-13.931-6.037-20.203-12.416-20.203-16.235C211.136,180.024,252.544,158.904,328.469,158.904z M192.853,271.437 c1.131-1.963,2.24-3.904,3.328-5.867c0.725-1.323,1.429-2.624,2.112-3.925c1.067-2.027,2.048-4.032,3.029-6.037 c0.533-1.109,1.109-2.219,1.6-3.328c1.387-3.029,2.645-6.016,3.733-8.939c0.192-0.512,0.32-0.981,0.491-1.493 c0.917-2.581,1.685-5.077,2.304-7.509c0.064-0.256,0.171-0.533,0.235-0.789c6.229-3.413,12.928-4.928,19.605-5.077 c0.043,0,0.085,0.021,0.128,0.021c8.939-0.299,17.493,2.347,24.768,7.275c0,0,0,0,0.021,0c5.163,3.499,9.728,8.043,13.035,13.803 c10.283,17.813,6.208,40.043-8.576,53.205c-2.112,1.877-4.437,3.563-6.997,5.035c-0.213,0.128-0.491,0.192-0.704,0.32 c-0.768,0.405-1.792,0.725-2.709,1.088c-2.56,0.96-5.504,1.771-8.896,2.368c-0.043,0-0.085,0.021-0.128,0.021 c-7.36,1.301-16.384,1.813-25.941,1.835c-0.213,0-0.448,0-0.683,0c-4.587,0-9.301-0.107-13.995-0.32 c-0.171,0-0.32-0.021-0.491-0.021c-11.072-0.491-21.888-1.429-31.232-2.453c0.299-0.405,0.64-0.875,0.939-1.301 c1.28-1.728,2.581-3.541,3.947-5.461c0.597-0.853,1.216-1.707,1.835-2.603c1.259-1.792,2.517-3.605,3.819-5.504 c0.683-1.003,1.365-1.984,2.048-3.008c1.536-2.283,3.072-4.608,4.608-6.997c0.427-0.661,0.832-1.28,1.259-1.941 c1.856-2.901,3.669-5.867,5.461-8.853C191.509,273.784,192.171,272.611,192.853,271.437z M147.115,180.216 c23.531,0,42.667,19.136,42.667,42.667c0,1.067-0.341,2.411-0.533,3.627c-0.448,2.667-1.195,5.547-2.347,8.725 c-0.043,0.128-0.085,0.235-0.128,0.363c-2.517,6.912-6.507,14.848-11.179,22.997c-0.32,0.555-0.683,1.131-1.003,1.707 c-2.048,3.499-4.181,7.04-6.4,10.539c-0.363,0.576-0.747,1.173-1.109,1.749c-2.411,3.776-4.885,7.509-7.339,11.093 c-0.064,0.085-0.128,0.171-0.171,0.256c-3.371,4.949-6.613,9.451-9.707,13.675c-4.821-11.008-11.648-25.557-19.52-39.573 c-0.064-0.128-0.149-0.256-0.235-0.384c-1.728-3.051-3.499-6.059-5.312-9.003c-0.405-0.64-0.789-1.28-1.195-1.92 c-1.664-2.667-3.371-5.227-5.099-7.723c-0.341-0.491-0.661-0.981-1.003-1.451c-2.048-2.901-4.139-5.632-6.229-8.171 c-0.192-0.235-0.384-0.427-0.576-0.64c-1.92-2.261-3.84-4.331-5.781-6.208c-0.171-0.171-0.32-0.384-0.491-0.533 C104.917,198.904,123.882,180.237,147.115,180.216z M27.051,249.571c7.893-13.696,22.251-21.333,37.013-21.333 c7.232,0,14.571,1.835,21.269,5.717c0.896,0.512,1.856,1.451,2.795,2.197c14.315,11.733,31.509,46.08,41.984,69.781 c-0.448-0.043-1.003-0.107-1.472-0.149c-2.219-0.235-4.544-0.491-6.997-0.725c-0.875-0.085-1.728-0.149-2.624-0.235 c-2.56-0.235-5.205-0.448-7.957-0.661c-0.725-0.064-1.429-0.107-2.176-0.171c-7.168-0.512-14.72-0.875-22.336-0.96 c-0.64,0-1.259,0-1.877,0c-3.051-0.021-6.08,0-9.088,0.085c-0.981,0.021-1.963,0.064-2.944,0.085 c-2.923,0.107-5.781,0.277-8.576,0.512c-0.725,0.064-1.472,0.107-2.197,0.171c-3.477,0.32-6.848,0.747-10.048,1.28 c-0.363,0.064-0.704,0.149-1.067,0.213c-2.837,0.512-5.483,1.131-8,1.835c-0.235,0.064-0.533,0.107-0.789,0.171 C22.123,295.459,15.424,269.688,27.051,249.571z M101.739,365.859c-1.301,2.219-2.56,4.459-3.776,6.699 c-0.619,1.109-1.195,2.219-1.792,3.328c-1.216,2.304-2.347,4.565-3.435,6.848c-0.427,0.896-0.875,1.771-1.28,2.645 c-1.429,3.115-2.709,6.187-3.84,9.173c-0.149,0.405-0.256,0.789-0.405,1.195c-0.96,2.667-1.749,5.227-2.368,7.744 c-0.043,0.235-0.171,0.512-0.235,0.747c-20.309,11.2-45.931,4.096-57.557-16.021c-11.755-20.373-4.757-46.528,15.616-58.283 c0.96-0.555,2.368-0.939,3.584-1.408c2.432-0.896,5.184-1.643,8.32-2.219c0.299-0.064,0.576-0.128,0.875-0.171 c8.576-1.472,19.371-1.856,30.613-1.685c4.629,0.064,9.344,0.235,14.123,0.469c2.987,0.171,5.973,0.32,8.896,0.533 c4.565,0.341,9.024,0.725,13.397,1.152c1.728,0.171,3.285,0.341,4.907,0.512c-0.875,1.195-1.856,2.581-2.795,3.861 c-0.533,0.747-1.045,1.451-1.6,2.219c-0.917,1.28-1.835,2.581-2.773,3.947c-1.024,1.472-2.069,2.965-3.115,4.501 c-0.789,1.152-1.536,2.261-2.325,3.435c-1.557,2.325-3.115,4.693-4.693,7.125c-0.363,0.576-0.725,1.109-1.088,1.685 c-1.899,2.987-3.776,6.037-5.611,9.131C102.805,363.982,102.272,364.899,101.739,365.859z M185.408,433.293 c-0.064,0.107-0.043,0.235-0.085,0.341c-6.976,14.123-21.397,23.936-38.187,23.936c-23.531,0-42.667-19.136-42.667-42.667 c0-1.045,0.32-2.389,0.512-3.605c0.448-2.688,1.216-5.611,2.368-8.832c0.021-0.085,0.043-0.149,0.064-0.235 c2.539-6.997,6.592-15.019,11.328-23.275c0.171-0.277,0.341-0.576,0.512-0.875c2.219-3.84,4.587-7.723,7.019-11.563 c0.192-0.277,0.363-0.576,0.555-0.853c5.909-9.259,12.075-18.069,17.579-25.579c2.411,5.483,5.333,11.883,8.597,18.645 c0.021,0.021,0.021,0.064,0.043,0.085c3.243,6.677,6.848,13.675,10.709,20.587c0.235,0.427,0.469,0.832,0.725,1.237 c1.557,2.752,3.157,5.44,4.779,8.107c0.512,0.832,1.024,1.664,1.536,2.475c1.557,2.453,3.115,4.843,4.715,7.147 c0.427,0.619,0.853,1.259,1.28,1.877c2.027,2.859,4.075,5.568,6.144,8.064c0.213,0.256,0.427,0.469,0.64,0.725 c1.899,2.24,3.797,4.288,5.717,6.144c0.128,0.128,0.256,0.299,0.384,0.405C189.589,421.603,188.202,427.555,185.408,433.293z M164.181,331.853c0.299,0.043,0.683,0.064,0.981,0.107c2.368,0.256,4.843,0.512,7.488,0.768c0.747,0.064,1.493,0.149,2.24,0.213 c2.645,0.235,5.376,0.469,8.213,0.683c0.917,0.064,1.792,0.128,2.709,0.192c2.667,0.192,5.397,0.341,8.171,0.469 c1.216,0.064,2.432,0.128,3.648,0.171c2.539,0.107,5.077,0.171,7.637,0.213c1.451,0.021,2.859,0.064,4.309,0.085 c0.683,0,1.387,0.043,2.069,0.043c1.003,0,1.941-0.064,2.944-0.085c3.115-0.021,6.165-0.107,9.195-0.256 c1.536-0.064,3.029-0.171,4.544-0.277c3.115-0.213,6.08-0.533,9.003-0.917c1.28-0.171,2.603-0.299,3.84-0.491 c3.456-0.555,6.699-1.237,9.707-2.069c0.427-0.107,0.96-0.171,1.365-0.299c5.163,3.115,9.579,7.232,12.928,12.139 c0.064,0.085,0.107,0.192,0.171,0.277c3.435,5.099,5.781,10.987,6.805,17.344c0,0.021,0.021,0.043,0.021,0.064 c0.256,1.621,0.533,3.221,0.619,4.885c0,0.107-0.064,0.213-0.043,0.341c0.128,3.776-0.32,7.467-1.109,11.029 c-0.128,0.512-0.213,1.045-0.363,1.557c-0.939,3.584-2.24,7.04-4.096,10.24c-0.235,0.405-0.576,0.747-0.832,1.152 c-1.28,2.048-2.624,4.053-4.181,5.803c-0.171,0.192-0.405,0.341-0.576,0.533c-9.173,9.963-22.507,14.848-35.691,13.504 c-0.32-0.043-0.64,0-0.96-0.021c-2.24-0.277-4.459-0.853-6.677-1.515c-0.491-0.149-1.024-0.192-1.515-0.363 c-2.667-0.896-5.291-2.069-7.808-3.52c-0.896-0.512-1.856-1.451-2.795-2.197C191.851,389.923,174.635,355.576,164.181,331.853z M483.754,424.12c-15.765,16.107-67.755,33.451-144.619,33.451c-53.845,0-103.701-9.28-130.901-24.021 c0.448-1.387,0.768-2.795,1.109-4.181c0.149-0.597,0.384-1.152,0.512-1.771c0.981,0.341,1.984,0.491,2.987,0.768 c0.789,0.213,1.557,0.427,2.368,0.619c4.757,1.152,9.579,1.835,14.464,1.877c0.171,0,0.32,0.064,0.491,0.064 c0.32,0,0.64-0.128,0.96-0.128c5.248-0.085,10.496-0.661,15.701-2.048c4.885-1.323,9.429-3.307,13.76-5.653 c1.088-0.597,2.091-1.301,3.157-1.963c3.371-2.069,6.485-4.416,9.408-7.083c1.024-0.917,2.027-1.792,2.987-2.795 c3.584-3.712,6.891-7.744,9.557-12.331c1.088-1.899,1.792-3.989,2.688-5.995c2.667-5.952,4.651-12.075,5.397-18.325 c14.848-1.515,29.931-2.048,44.736-2.304c5.504,0.064,10.944,0.107,16.277,0.192c8.021,0.107,15.851,0.213,23.445,0.213 c10.901,0,21.269-0.277,31.061-1.024c52.523,0.555,78.443,7.445,79.189,43.456C488.533,417.848,486.933,420.878,483.754,424.12z"/><path d="M272.448,115.576c2.624,0,5.227-0.96,7.296-2.859c4.459-4.16,21.163-17.813,48.725-17.813 c5.888,0,10.667-4.779,10.667-10.667s-4.779-10.667-10.667-10.667c-35.392,0-57.408,18.027-63.317,23.552 c-4.288,4.032-4.501,10.773-0.491,15.083C266.752,114.467,269.611,115.576,272.448,115.576z"/></symbol><symbol id="signal-bars" viewBox="0 0 511.626 511.627"><title>signal-bars</title><path d="M63.953,401.992H9.135c-2.666,0-4.853,0.855-6.567,2.567C0.859,406.271,0,408.461,0,411.126v54.82 c0,2.665,0.855,4.855,2.568,6.563c1.714,1.718,3.905,2.57,6.567,2.57h54.818c2.663,0,4.853-0.853,6.567-2.57 c1.712-1.708,2.568-3.898,2.568-6.563v-54.82c0-2.665-0.856-4.849-2.568-6.566C68.806,402.848,66.616,401.992,63.953,401.992z"/><path d="M283.225,292.36h-54.818c-2.667,0-4.854,0.855-6.567,2.566c-1.711,1.711-2.57,3.901-2.57,6.563v164.456 c0,2.665,0.856,4.855,2.57,6.563c1.713,1.718,3.899,2.57,6.567,2.57h54.818c2.665,0,4.855-0.853,6.563-2.57 c1.711-1.708,2.573-3.898,2.573-6.563V301.49c0-2.662-0.862-4.853-2.573-6.563C288.081,293.216,285.89,292.36,283.225,292.36z"/><path d="M173.589,365.451h-54.818c-2.667,0-4.854,0.855-6.567,2.566c-1.711,1.711-2.568,3.901-2.568,6.563v91.358 c0,2.669,0.854,4.859,2.568,6.57c1.713,1.711,3.899,2.566,6.567,2.566h54.818c2.663,0,4.853-0.855,6.567-2.566 c1.709-1.711,2.568-3.901,2.568-6.57v-91.358c0-2.662-0.859-4.853-2.568-6.563C178.442,366.307,176.251,365.451,173.589,365.451z"/><path d="M392.857,182.725h-54.819c-2.666,0-4.856,0.855-6.57,2.568c-1.708,1.714-2.563,3.901-2.563,6.567v274.086 c0,2.665,0.855,4.855,2.563,6.563c1.714,1.718,3.904,2.57,6.57,2.57h54.819c2.666,0,4.856-0.853,6.563-2.57 c1.718-1.708,2.57-3.898,2.57-6.563V191.86c0-2.666-0.853-4.853-2.57-6.567C397.713,183.58,395.523,182.725,392.857,182.725z"/><path d="M509.06,39.115c-1.718-1.714-3.901-2.568-6.57-2.568h-54.816c-2.662,0-4.853,0.854-6.567,2.568 c-1.714,1.709-2.569,3.899-2.569,6.563v420.268c0,2.665,0.855,4.855,2.569,6.563c1.715,1.718,3.905,2.57,6.567,2.57h54.816 c2.669,0,4.853-0.853,6.57-2.57c1.711-1.708,2.566-3.898,2.566-6.563V45.679C511.626,43.015,510.771,40.825,509.06,39.115z"/></symbol><symbol id="time" viewBox="0 0 60 60"><title>time</title><path d="M30,0C13.458,0,0,13.458,0,30s13.458,30,30,30s30-13.458,30-30S46.542,0,30,0z M30,58C14.561,58,2,45.439,2,30 S14.561,2,30,2s28,12.561,28,28S45.439,58,30,58z"/><path d="M30,6c-0.552,0-1,0.447-1,1v23H14c-0.552,0-1,0.447-1,1s0.448,1,1,1h16c0.552,0,1-0.447,1-1V7C31,6.447,30.552,6,30,6z"/></symbol><symbol id="lotus" viewBox="0 0 300 300"><title>lotus</title><path d="m56 48c2.209 0 4-1.791 4-4v-12c0-2.209-1.791-4-4-4s-4 1.791-4 4v12c0 2.209 1.791 4 4 4z"/><path d="m56 56c-2.209 0-4 1.791-4 4v12c0 2.209 1.791 4 4 4s4-1.791 4-4v-12c0-2.209-1.791-4-4-4z"/><path d="m36 56h12c2.209 0 4-1.791 4-4s-1.791-4-4-4h-12c-2.209 0-4 1.791-4 4s1.791 4 4 4z"/><path d="m64 56h12c2.209 0 4-1.791 4-4s-1.791-4-4-4h-12c-2.209 0-4 1.791-4 4s1.791 4 4 4z"/><circle cx="100" cy="80" r="4"/><circle cx="228" cy="80" r="4"/><path d="m198 64c7.72 0 14-6.28 14-14s-6.28-14-14-14-14 6.28-14 14 6.28 14 14 14zm0-20c3.309 0 6 2.691 6 6s-2.691 6-6 6-6-2.691-6-6 2.691-6 6-6z"/><path d="m271.442 200.302c-.508-.405-11.615-9.192-27.942-15.692 24.056-31.228 20.979-76.382 20.823-78.438-.148-1.972-1.716-3.539-3.688-3.688-1.855-.141-38.948-2.668-69.125 14.629-7.723-34.05-34.705-59.695-35.901-60.818-1.442-1.352-3.655-1.448-5.21-.225-1.374 1.081-32.448 25.886-42.055 60.96-30.149-17.205-67.125-14.685-68.98-14.546-1.972.149-3.539 1.716-3.688 3.688-.156 2.056-3.233 47.208 20.821 78.436-16.325 6.499-27.43 15.286-27.94 15.694-.846.675-1.381 1.664-1.485 2.74-.104 1.077.231 2.149.932 2.974 1.03 1.214 25.627 29.762 60.413 32.534 1.841.147 3.67.216 5.484.216 9.394 0 18.348-1.858 26.177-4.367-.774 2.105-1.07 4.218-.857 6.334 1.529 15.177 27.934 29.264 30.939 30.82.576.298 1.207.448 1.839.448.596 0 1.191-.133 1.742-.399.335-.163 8.306-4.039 16.231-9.678 11.532-8.206 17.016-15.975 16.299-23.091-.094-.937-.296-1.855-.583-2.754 6.957 1.781 13.75 2.692 20.317 2.692 1.877 0 3.737-.073 5.576-.22 34.785-2.771 59.383-31.32 60.413-32.534.7-.824 1.036-1.897.932-2.974s-.638-2.066-1.484-2.741zm-14.966-89.969c.205 12.065-1.057 51.94-24.978 75.861-23.926 23.926-63.804 25.194-75.864 24.978-.216-12.053 1.014-51.893 24.98-75.86 23.923-23.925 63.817-25.187 75.862-24.979zm-106.476 71.314c-2.845-15.587-8.898-33.8-21.505-48.281 1.609-18.826 16.649-34.504 22.911-40.267 5.648 6.181 18.917 22.643 19.332 41.153-12.089 14.333-17.951 32.125-20.738 47.395zm2.638-116.982c6.997 7.368 26.558 29.973 31.668 57.072-2.156 1.549-4.255 3.22-6.277 5.022-3.932-23.328-22.754-41.249-23.648-42.087-1.442-1.352-3.655-1.448-5.21-.225-1.011.795-22.47 17.951-27.679 41.895-1.955-1.712-3.978-3.305-6.054-4.785 6.666-27.877 29.334-49.927 37.2-56.892zm-109.114 45.664c12.042-.218 51.894 1.015 75.86 24.981.651.651 1.277 1.318 1.895 1.992.119.148.247.286.385.416 21.722 24.106 22.896 61.795 22.698 73.457-12.036.223-51.894-1.015-75.861-24.981-23.923-23.924-25.182-63.808-24.977-75.865zm45.528 120.246c-24.9-1.984-44.704-19.334-51.962-26.58 4.703-3.217 13.739-8.817 24.972-12.95.261.269.518.54.783.805 21.574 21.574 53.669 26.35 71.856 27.209-.218.14-.436.276-.654.418-.861.564-1.672 1.131-2.459 1.698-.048.021-.099.03-.146.054-10.271 4.986-25.954 10.653-42.39 9.346zm76.36 24.775c-5.245 3.741-10.65 6.717-13.367 8.139-9.892-5.45-24.083-15.807-24.864-23.559-.753-7.48 14.518-16.442 23.239-20.235 9.622 3.498 27.104 12.105 27.894 19.938.388 3.864-4.314 9.592-12.902 15.717zm45.536-24.775c-10.528.84-21.881-1.04-33.737-5.586-.018-.007-.037-.008-.056-.015-2.814-2.283-5.998-4.318-9.152-6.069 18.531-1.202 48.608-6.51 69.151-27.054.265-.265.521-.535.781-.803 11.237 4.134 20.279 9.735 24.98 12.952-7.24 7.245-26.998 24.585-51.967 26.575z"/><path d="m222.36 181.284c1.033 0 2.065-.398 2.848-1.191 18.354-18.61 16.239-50.05 16.141-51.379-.165-2.203-2.105-3.861-4.286-3.692-2.203.164-3.856 2.083-3.692 4.286.021.29 1.972 29.118-13.857 45.168-1.552 1.573-1.534 4.105.039 5.657.778.768 1.793 1.151 2.807 1.151z"/><path d="m81.218 179.56c.751.634 1.667.944 2.579.944 1.137 0 2.267-.482 3.058-1.418 1.426-1.688 1.213-4.211-.475-5.637-17.117-14.46-17.891-43.283-17.9-43.726-.036-2.186-1.819-3.933-3.998-3.933-.022 0-.045 0-.067 0-2.209.037-3.97 1.857-3.933 4.065.021 1.334.768 32.836 20.736 49.705z"/></symbol><symbol id="facebook-logo" viewBox="0 0 96.124 96.123"><title>facebook-logo</title><path d="M72.089,0.02L59.624,0C45.62,0,36.57,9.285,36.57,23.656v10.907H24.037c-1.083,0-1.96,0.878-1.96,1.961v15.803 c0,1.083,0.878,1.96,1.96,1.96h12.533v39.876c0,1.083,0.877,1.96,1.96,1.96h16.352c1.083,0,1.96-0.878,1.96-1.96V54.287h14.654 c1.083,0,1.96-0.877,1.96-1.96l0.006-15.803c0-0.52-0.207-1.018-0.574-1.386c-0.367-0.368-0.867-0.575-1.387-0.575H56.842v-9.246 c0-4.444,1.059-6.7,6.848-6.7l8.397-0.003c1.082,0,1.959-0.878,1.959-1.96V1.98C74.046,0.899,73.17,0.022,72.089,0.02z"/></symbol><symbol id="twitter" viewBox="0 -47 512.00203 512"><title>twitter</title><path d="m191.011719 419.042969c-22.140625 0-44.929688-1.792969-67.855469-5.386719-40.378906-6.335938-81.253906-27.457031-92.820312-33.78125l-30.335938-16.585938 32.84375-10.800781c35.902344-11.804687 57.742188-19.128906 84.777344-30.597656-27.070313-13.109375-47.933594-36.691406-57.976563-67.175781l-7.640625-23.195313 6.265625.957031c-5.941406-5.988281-10.632812-12.066406-14.269531-17.59375-12.933594-19.644531-19.78125-43.648437-18.324219-64.21875l1.4375-20.246093 12.121094 4.695312c-5.113281-9.65625-8.808594-19.96875-10.980469-30.777343-5.292968-26.359376-.863281-54.363282 12.476563-78.851563l10.558593-19.382813 14.121094 16.960938c44.660156 53.648438 101.226563 85.472656 168.363282 94.789062-2.742188-18.902343-.6875-37.144531 6.113281-53.496093 7.917969-19.039063 22.003906-35.183594 40.722656-46.691407 20.789063-12.777343 46-18.96875 70.988281-17.433593 26.511719 1.628906 50.582032 11.5625 69.699219 28.746093 9.335937-2.425781 16.214844-5.015624 25.511719-8.515624 5.59375-2.105469 11.9375-4.496094 19.875-7.230469l29.25-10.078125-19.074219 54.476562c1.257813-.105468 2.554687-.195312 3.910156-.253906l31.234375-1.414062-18.460937 25.230468c-1.058594 1.445313-1.328125 1.855469-1.703125 2.421875-1.488282 2.242188-3.339844 5.03125-28.679688 38.867188-6.34375 8.472656-9.511718 19.507812-8.921875 31.078125 2.246094 43.96875-3.148437 83.75-16.042969 118.234375-12.195312 32.625-31.09375 60.617187-56.164062 83.199219-31.023438 27.9375-70.582031 47.066406-117.582031 56.847656-23.054688 4.796875-47.8125 7.203125-73.4375 7.203125zm0 0"/></symbol><symbol id="instagram-logo" viewBox="0 0 169.063 169.063"><title>instagram-logo</title><path d="M122.406,0H46.654C20.929,0,0,20.93,0,46.655v75.752c0,25.726,20.929,46.655,46.654,46.655h75.752 c25.727,0,46.656-20.93,46.656-46.655V46.655C169.063,20.93,148.133,0,122.406,0z M154.063,122.407 c0,17.455-14.201,31.655-31.656,31.655H46.654C29.2,154.063,15,139.862,15,122.407V46.655C15,29.201,29.2,15,46.654,15h75.752 c17.455,0,31.656,14.201,31.656,31.655V122.407z"/><path d="M84.531,40.97c-24.021,0-43.563,19.542-43.563,43.563c0,24.02,19.542,43.561,43.563,43.561s43.563-19.541,43.563-43.561 C128.094,60.512,108.552,40.97,84.531,40.97z M84.531,113.093c-15.749,0-28.563-12.812-28.563-28.561 c0-15.75,12.813-28.563,28.563-28.563s28.563,12.813,28.563,28.563C113.094,100.281,100.28,113.093,84.531,113.093z"/><path d="M129.921,28.251c-2.89,0-5.729,1.17-7.77,3.22c-2.051,2.04-3.23,4.88-3.23,7.78c0,2.891,1.18,5.73,3.23,7.78 c2.04,2.04,4.88,3.22,7.77,3.22c2.9,0,5.73-1.18,7.78-3.22c2.05-2.05,3.22-4.89,3.22-7.78c0-2.9-1.17-5.74-3.22-7.78 C135.661,29.421,132.821,28.251,129.921,28.251z"/></symbol><symbol id="vimeo" viewBox="0 0 24 24"><title>vimeo</title><path d="m20.497 1.505c-3.328-.121-5.576 1.787-6.762 5.694.61-.273 1.203-.395 1.777-.395 1.219 0 1.758.697 1.614 2.082-.072.839-.608 2.059-1.612 3.664-1.009 1.605-1.763 2.409-2.265 2.409-1.522 0-2.437-7.284-2.747-9.273-.431-2.765-1.58-4.058-3.447-3.877-1.714.163-4.705 3.249-7.055 5.341l1.129 1.472c1.075-.762 1.702-1.144 1.881-1.144 1.871 0 2.777 6.367 4.23 11.102.975 2.613 2.144 3.92 3.553 3.92 2.264 0 5.022-2.144 8.29-6.434 3.155-4.107 4.789-7.344 4.894-9.705l.013-.01c.134-3.165-1.021-4.785-3.493-4.846z"/></symbol></svg>